<?xml version="1.0" encoding="UTF-8"?>
<svg width="24px" height="24px" viewBox="0 0 24 24" version="1.1" xmlns="http://www.w3.org/2000/svg" xmlns:xlink="http://www.w3.org/1999/xlink">
    <!-- Generator: Sketch 50.2 (55047) - http://www.bohemiancoding.com/sketch -->
    <title>preview</title>
    <desc>Created with Sketch.</desc>
    <defs></defs>
    <g id="preview" stroke="none" stroke-width="1" fill="none" fill-rule="evenodd">
        <path d="M12,20 C6.4771525,20 2,14.5641711 2,12 C2,9.43582887 6.4771525,4 12,4 C17.5228475,4 22,9.43582887 22,12 C22,14.5641711 17.5228475,20 12,20 Z M12,16 C14.209139,16 16,14.209139 16,12 C16,9.790861 14.209139,8 12,8 C9.790861,8 8,9.790861 8,12 C8,14.209139 9.790861,16 12,16 Z M12,14 C10.8954305,14 10,13.1045695 10,12 C10,10.8954305 10.8954305,10 12,10 C13.1045695,10 14,10.8954305 14,12 C14,13.1045695 13.1045695,14 12,14 Z" id="Combined-Shape" fill="#3E3E3E"></path>
    </g>
</svg>